# xmcd
#
# Track frame offsets:
#        150
#        45600
#        79007
#        134107
#        154807
#        203885
#        244450
#
# Disc length: 3746 seconds
#
# Revision: 1
# Processed by: cddbd v1.5.1PL0 Copyright (c) Steve Scherf et al.
# Submitted via: ExactAudioCopy v0.95a5
#
DISCID=620ea007
DTITLE=Various Artist - The Best of CTI Disc.2
DYEAR=2005
DGENRE=Jazz
TTITLE0=For Someone I Love - Milt Jackson
TTITLE1=California Dreaming - George Benson
TTITLE2=Red Clay - Freddie Hubbard
TTITLE3=Squeeze Me - Paul Desmond
TTITLE4=Pavane For A Dead Princess - Art Farmer, Jim Hall
TTITLE5=The Rite Of Spring - Hubert Laws
TTITLE6=God Bless The Child - Kenny Burrell
EXTD=YEAR: 2005
EXTT0=
EXTT1=
EXTT2=
EXTT3=
EXTT4=
EXTT5=
EXTT6=
PLAYORDER=
